<svg xmlns="http://www.w3.org/2000/svg" viewBox="0 0 877.02 877.02">
<style>path{fill:#fff}@media (prefers-color-scheme: light){path{fill:#111}}</style>
<g transform="translate(129.92,46.98)"><g transform="translate(0.000000,782.823351) scale(0.100000,-0.100000)">
<path d="M3679 7791 c-84 -41 -132 -99 -164 -200 -25 -78 -37 -402 -18 -481
16 -64 57 -120 99 -134 16 -5 58 -27 94 -49 36 -22 68 -41 72 -44 4 -2 6 2 3
9 -4 10 15 13 82 14 158 2 258 60 322 189 32 64 33 69 38 229 8 218 -21 343
-100 433 -52 59 -94 72 -234 71 -118 -1 -123 -2 -194 -37z m307 -52 c19 -11
41 -30 49 -42 8 -11 18 -18 22 -14 3 4 -6 21 -22 37 -32 34 -30 47 4 23 36
-25 79 -101 106 -185 28 -90 48 -409 26 -422 -11 -7 -17 87 -12 170 1 17 -4
38 -11 45 -7 8 -39 66 -71 129 -32 63 -67 126 -78 140 -17 21 -16 17 4 -25 42
-87 43 -99 5 -63 -33 31 -96 63 -105 54 -9 -9 109 -179 158 -228 l47 -47 -22
-20 c-28 -26 -34 -26 -60 2 -33 36 -117 100 -123 94 -11 -11 18 -74 61 -131
44 -58 47 -75 19 -115 -1 -2 -27 15 -58 38 l-55 42 0 -29 c0 -30 34 -89 77
-131 35 -36 13 -50 -29 -18 -28 21 -94 47 -120 47 -17 0 -6 -20 38 -69 l46
-51 -49 0 c-85 0 -176 75 -217 180 -50 125 -22 376 54 483 40 57 113 113 156
120 76 11 127 7 160 -14z m84 -598 c0 -11 -39 -41 -52 -41 -14 0 -8 23 10 36
20 16 42 18 42 5z"/>
<path d="M240 7735 c47 -7 189 -21 315 -30 127 -10 233 -20 237 -24 4 -3 -120
-4 -275 -3 -327 4 -383 0 -393 -30 -3 -11 -1 -25 4 -30 7 -7 298 -11 847 -13
460 -2 837 -4 838 -7 1 -2 17 -20 36 -40 l34 -37 -68 -31 -68 -30 -54 42
c-110 87 -121 89 -65 14 20 -27 43 -57 50 -66 12 -16 7 -21 -42 -50 l-56 -31
-45 30 c-52 35 -55 32 -19 -16 14 -19 24 -36 23 -38 -2 -1 -32 -20 -67 -40
-54 -31 -65 -35 -79 -23 -14 11 -15 10 -9 -9 6 -18 -2 -27 -56 -59 -76 -46
-63 -54 33 -19 l72 25 54 -41 c29 -23 56 -45 58 -49 4 -7 -85 -77 -110 -87 -9
-3 -27 2 -41 12 -36 24 -49 14 -24 -18 12 -16 21 -30 19 -32 -2 -2 -39 -31
-83 -64 -43 -34 -75 -61 -70 -61 5 0 49 20 97 45 l89 45 81 -72 c45 -40 83
-76 85 -80 2 -3 28 -21 58 -39 29 -18 54 -36 54 -39 0 -3 -42 -48 -92 -100
-51 -53 -135 -141 -187 -198 -51 -56 -96 -102 -100 -101 -3 0 -49 56 -101 125
-115 152 -198 257 -310 397 -47 58 -131 165 -187 239 -56 73 -136 169 -178
213 -72 76 -94 91 -41 29 90 -106 124 -149 202 -261 92 -129 170 -235 337
-457 134 -176 135 -183 10 -58 -59 59 -151 146 -203 193 -52 46 -101 92 -108
101 -7 9 -18 23 -25 30 -20 21 -117 145 -207 263 -112 147 -167 212 -271 320
-83 87 -166 183 -202 235 -9 13 -17 20 -17 14 0 -17 94 -140 179 -234 69 -76
161 -190 216 -266 38 -53 94 -129 102 -139 16 -18 24 -35 18 -35 -4 0 -55 46
-113 103 -59 57 -137 132 -174 167 -37 34 -88 89 -114 122 l-47 58 -24 -22
c-13 -12 -23 -26 -23 -32 0 -21 243 -317 360 -439 47 -49 96 -103 110 -120 60
-73 69 -80 402 -354 60 -49 195 -185 315 -317 23 -25 50 -46 60 -46 26 0 47
16 39 29 -4 6 -2 11 5 11 8 0 10 -41 5 -162 -3 -90 -9 -298 -13 -463 -6 -276
-8 -295 -19 -240 l-13 60 2 -47 c1 -27 0 -48 -2 -48 -2 0 -52 48 -110 108 -59
59 -124 123 -146 143 -56 50 -126 127 -270 299 -44 52 -82 97 -86 100 -3 3
-25 32 -48 64 -22 33 -41 55 -41 50 0 -18 48 -92 126 -194 99 -129 102 -135
78 -122 -27 14 -64 57 -115 131 -46 66 -72 85 -101 69 -34 -17 -22 -65 31
-126 26 -31 70 -86 97 -122 135 -178 275 -346 327 -393 18 -16 48 -43 67 -61
19 -17 47 -40 61 -51 14 -11 51 -42 82 -70 66 -57 65 -50 47 -295 -20 -278
-28 -582 -21 -805 4 -126 5 -232 4 -234 -2 -3 -10 5 -18 17 -9 11 -21 27 -28
34 -7 7 -66 81 -131 163 -65 83 -132 167 -150 189 -17 21 -69 93 -115 159 -46
66 -98 137 -116 156 -18 20 -51 56 -74 81 -23 25 -53 64 -67 88 -14 23 -32 42
-40 42 -8 0 -25 9 -37 20 -46 43 -97 38 -97 -10 0 -30 42 -96 173 -275 32 -44
66 -91 75 -104 10 -13 29 -38 43 -55 24 -29 109 -161 109 -170 0 -3 22 -37 49
-78 81 -121 217 -252 364 -349 90 -60 87 -52 87 -223 0 -83 5 -193 10 -245 8
-74 7 -120 -5 -214 -9 -65 -18 -160 -20 -209 -3 -50 -7 -93 -9 -95 -7 -7 -270
138 -286 157 -3 3 -45 32 -93 64 -49 32 -123 86 -165 119 -81 64 -374 351
-410 402 -12 17 -37 50 -55 75 -18 25 -45 64 -60 87 -16 23 -38 50 -49 60
l-21 18 18 -35 c10 -19 29 -52 42 -72 12 -21 23 -40 23 -43 0 -3 -48 44 -107
105 -59 60 -108 108 -111 106 -2 -2 23 -40 55 -85 32 -44 74 -103 93 -131 94
-136 206 -288 234 -319 57 -61 -4 -17 -196 143 -104 86 -188 152 -188 147 0
-5 3 -11 7 -13 5 -1 26 -25 48 -53 22 -27 96 -106 165 -173 237 -235 529 -429
823 -547 38 -15 105 -46 150 -69 l82 -43 2 -79 c5 -162 26 -429 33 -404 4 14
10 95 15 180 14 294 19 308 32 90 7 -108 17 -207 23 -220 8 -20 9 -14 5 30 -4
30 -3 131 1 223 l7 168 28 6 c37 7 37 15 -1 31 l-30 14 0 214 c0 197 12 497
26 622 4 37 10 52 21 52 13 0 147 86 239 154 72 52 346 320 450 439 67 78 177
239 213 312 14 28 54 79 90 114 49 47 55 55 23 31 -24 -18 -45 -30 -48 -27 -3
2 29 71 70 153 41 82 81 165 89 184 32 72 47 113 43 117 -7 7 -141 -150 -166
-196 -66 -120 -272 -392 -395 -520 -55 -57 -213 -219 -352 -360 -138 -141
-250 -258 -248 -260 2 -1 16 9 32 23 15 14 32 26 37 26 10 0 -65 -88 -76 -89
-4 -1 -9 74 -10 167 l-3 167 -18 -129 c-30 -205 -37 -192 -31 49 3 121 6 394
7 607 2 383 2 386 23 400 99 61 245 210 362 369 56 75 138 176 184 225 46 50
94 104 108 121 14 17 51 59 83 94 32 35 61 69 65 74 108 149 118 169 97 201
-8 13 -23 24 -31 24 -23 0 -83 -66 -128 -142 -22 -36 -49 -70 -60 -75 -12 -5
-15 -8 -8 -6 13 3 7 -13 -18 -47 -9 -12 -10 -10 -5 10 8 31 -6 14 -37 -45 -11
-22 -44 -64 -72 -93 -77 -81 -278 -264 -283 -258 -3 2 20 34 51 70 43 51 340
485 380 555 30 53 -76 -81 -200 -254 -82 -115 -145 -195 -198 -255 -17 -19
-68 -78 -113 -130 -111 -130 -158 -174 -177 -167 -14 5 -16 29 -16 157 0 148
-25 746 -34 826 l-5 42 127 88 c252 174 410 298 564 442 58 53 71 61 87 52 30
-15 36 -12 17 9 -16 18 -14 21 46 78 35 33 83 77 108 99 25 21 50 44 56 49 6
6 31 25 55 44 24 19 105 96 179 171 74 76 162 160 195 187 33 28 106 93 162
145 l102 95 58 2 c70 3 85 11 20 11 -37 0 -47 4 -47 16 0 14 -3 14 -15 4 -8
-7 -29 -14 -46 -16 -33 -4 -32 2 5 46 20 23 20 24 1 10 -11 -8 -27 -23 -36
-34 -16 -18 -33 -20 -290 -24 -270 -3 -723 9 -994 28 -153 11 -724 27 -1230
34 -295 5 -313 4 -235 -9z m2713 -132 c-37 -32 -71 -62 -75 -67 -4 -6 -9 -8
-12 -5 -3 3 18 33 46 67 42 49 58 62 81 62 26 0 24 -4 -40 -57z m-68 -5 c-27
-29 -50 -55 -52 -57 -2 -3 -16 9 -31 26 -16 16 -41 39 -57 49 l-29 19 44 6
c25 3 74 7 109 7 l64 2 -48 -52z m-217 7 c15 -32 15 -32 -2 -38 -7 -3 -35 5
-62 19 -46 23 -94 32 -94 16 0 -4 14 -24 30 -44 30 -36 30 -37 10 -48 -17 -9
-32 -2 -100 47 l-81 58 73 6 c180 14 214 11 226 -16z m-541 -18 c12 -17 31
-44 43 -58 l20 -27 -54 -21 -53 -22 -48 32 -48 32 23 19 c13 10 30 23 39 28 9
5 13 12 9 16 -4 4 -13 2 -20 -3 -7 -5 -32 -15 -56 -22 -39 -11 -45 -10 -90 16
l-47 28 85 6 c179 12 173 12 197 -24z m235 -5 c10 -21 34 -57 54 -81 20 -23
35 -43 33 -45 -55 -37 -52 -37 -113 12 l-57 46 28 23 28 24 -37 -15 c-35 -14
-37 -13 -87 20 -27 19 -55 34 -61 34 -5 0 -10 5 -10 10 0 6 41 10 103 10 l102
-1 17 -37z m348 -30 c0 -5 19 -15 43 -22 56 -18 55 -16 22 -50 -28 -29 -55
-27 -55 3 0 6 -9 21 -21 33 -12 12 -18 27 -14 33 7 13 25 15 25 3z m-36 -88
c31 -14 54 -29 52 -33 -12 -20 -306 -231 -321 -231 -10 0 -95 76 -95 85 0 3
17 16 38 30 l37 24 53 -25 c65 -31 76 -25 34 19 -39 40 -39 41 -2 67 l29 21
50 -26 c50 -25 91 -33 91 -17 0 4 -16 23 -35 42 -37 36 -44 55 -22 63 22 10
34 7 91 -19z m-718 1 c8 -8 25 -21 36 -30 12 -8 20 -16 17 -18 -18 -15 -121
-67 -132 -67 -7 0 -26 13 -41 29 l-28 30 53 35 c61 39 74 42 95 21z m318 -41
c27 -24 47 -46 45 -47 -64 -45 -68 -45 -126 -1 -61 46 -61 49 -21 74 44 27 45
26 102 -26z m-99 -134 c0 -9 -104 -90 -115 -90 -9 0 -54 35 -94 71 l-29 27 63
40 63 40 56 -40 c31 -21 56 -43 56 -48z m-397 47 c35 -36 34 -41 -15 -66 -19
-10 -28 -7 -62 16 -50 35 -50 38 -3 62 48 26 43 26 80 -12z m-135 -83 l38 -36
-37 -25 -37 -25 -59 28 c-33 16 -62 32 -64 36 -5 8 84 57 106 57 8 1 32 -15
53 -35z m270 -36 c23 -18 54 -40 67 -49 21 -14 23 -18 11 -33 -20 -24 -34 -20
-111 28 l-71 44 28 21 c35 25 25 27 76 -11z m402 -9 c62 -35 62 -35 3 -75 -24
-16 -49 -35 -56 -41 -7 -7 -20 -13 -28 -13 -15 0 -103 60 -104 71 0 8 110 89
121 89 5 0 34 -14 64 -31z m-545 -64 c7 -8 16 -15 21 -15 16 0 98 -55 99 -67
0 -6 -12 -20 -27 -31 l-27 -20 -76 51 c-41 27 -77 52 -80 54 -8 7 43 43 61 43
9 0 22 -7 29 -15z m440 -84 c0 -3 -20 -19 -44 -34 l-44 -28 -46 33 c-54 37
-54 40 -20 65 26 19 27 19 90 -6 35 -14 64 -27 64 -30z m-519 -38 c72 -53 92
-73 72 -73 -5 0 -28 -18 -53 -40 -25 -22 -48 -40 -53 -40 -4 0 -31 20 -61 44
-30 24 -68 52 -85 62 -17 10 -31 21 -31 24 0 5 120 80 128 80 2 0 39 -26 83
-57z m336 -15 c29 -13 53 -26 53 -30 0 -4 -18 -20 -40 -34 -39 -26 -90 -28
-90 -4 0 6 -6 10 -14 10 -7 0 -20 7 -27 16 -11 14 -10 18 6 30 11 7 25 18 30
23 15 15 25 13 82 -11z m100 -103 c-48 -44 -73 -57 -65 -33 5 14 88 77 103 77
6 0 -12 -20 -38 -44z m-252 3 c24 -13 44 -25 44 -28 0 -3 -37 -28 -83 -56
l-84 -51 -37 35 c-41 39 -42 37 40 86 72 42 65 41 120 14z m155 -82 c0 -8 -28
-38 -62 -67 -35 -30 -65 -56 -68 -59 -17 -17 -115 -94 -175 -135 -38 -27 -72
-52 -75 -55 -12 -14 -152 -111 -155 -108 -6 5 118 142 204 226 65 65 78 73
103 68 29 -6 36 2 17 21 -7 7 15 27 78 67 87 55 133 70 133 42z m-975 -1395
c39 -41 109 -115 158 -166 65 -68 87 -98 87 -118 0 -15 -3 -27 -7 -27 -32 0
-433 451 -433 486 0 12 125 -100 195 -175z m455 -286 c-7 -8 -17 -15 -22 -15
-6 0 -5 7 2 15 7 8 17 15 22 15 6 0 5 -7 -2 -15z m-95 -109 c-10 -14 -21 -26
-26 -26 -16 0 -9 49 9 59 26 15 36 -4 17 -33z m-501 -913 c105 -126 156 -192
156 -199 0 -38 -298 343 -354 453 -32 64 -14 44 66 -73 45 -65 104 -147 132
-181z m1276 228 c0 -43 -488 -554 -575 -603 -19 -10 -19 -10 -4 8 126 154 222
259 373 407 228 224 206 203 206 188z"/>
<path d="M4390 7574 c-23 -9 -46 -31 -65 -62 -29 -46 -30 -49 -28 -170 2 -115
4 -127 33 -191 18 -38 49 -86 70 -106 l39 -38 88 1 c138 1 190 33 213 130 26
114 -8 243 -97 361 -62 81 -165 112 -253 75z m162 -94 c42 -36 79 -102 65
-116 -3 -3 -17 6 -32 20 -16 15 -34 26 -41 26 -54 0 -58 -48 -9 -116 62 -88
66 -100 15 -57 -9 8 -34 25 -57 38 -89 54 -70 -27 35 -144 58 -67 55 -76 -19
-66 -88 12 -133 93 -144 260 -6 83 -5 94 17 135 39 72 100 79 170 20z m62
-358 c29 -31 28 -52 -3 -52 -16 0 -104 110 -119 149 -6 17 74 -47 122 -97z
m96 78 c0 -26 -15 -33 -30 -15 -10 12 -10 18 0 30 15 18 30 11 30 -15z"/>
<path d="M493 7552 c10 -10 17 -22 17 -27 0 -19 152 -235 210 -297 91 -100 95
-94 33 42 -43 94 -128 208 -194 260 -54 42 -97 57 -66 22z"/>
<path d="M5035 7253 c-53 -34 -123 -101 -142 -137 -26 -50 -4 -113 77 -219 60
-80 100 -102 180 -102 79 0 121 23 164 90 68 109 5 314 -116 376 -54 27 -69
19 -21 -11 37 -25 92 -114 93 -152 0 -14 -6 -13 -44 8 -56 31 -64 20 -32 -48
29 -61 28 -65 -13 -43 -37 18 -51 13 -44 -15 4 -14 0 -20 -11 -20 -21 0 -22
-46 -1 -57 17 -10 10 -53 -9 -53 -37 0 -176 162 -176 207 0 29 71 137 105 159
13 8 26 22 29 30 7 17 9 18 -39 -13z m235 -298 c0 -8 -4 -15 -10 -15 -5 0 -10
7 -10 15 0 8 5 15 10 15 6 0 10 -7 10 -15z"/>
<path d="M5529 6979 c-54 -32 -89 -92 -89 -154 0 -36 3 -46 10 -35 5 8 10 27
10 42 0 42 81 108 132 108 22 0 48 -5 58 -10 20 -11 63 -79 75 -119 7 -24 7
-24 -49 -17 -47 5 -56 4 -56 -10 0 -11 -6 -14 -20 -9 -44 14 -2 -83 59 -135
42 -37 46 -38 53 -20 8 21 28 28 28 9 0 -6 -5 -19 -11 -30 -10 -19 -12 -19
-35 -4 -31 20 -44 12 -44 -26 0 -16 -4 -29 -9 -29 -12 0 -62 40 -123 99 -55
52 -60 47 -19 -18 53 -82 114 -133 168 -142 47 -7 49 -6 80 29 51 59 73 112
73 177 0 131 -59 262 -137 303 -35 19 -114 14 -154 -9z"/>
<path d="M4005 6876 c-109 -35 -132 -51 -253 -170 -115 -112 -152 -164 -152
-211 0 -39 -37 -162 -59 -198 -22 -36 -53 -152 -73 -272 -20 -127 -17 -647 5
-750 9 -44 24 -111 31 -150 8 -38 26 -99 40 -135 108 -283 170 -464 177 -520
9 -70 28 -134 108 -358 l51 -144 2 -471 3 -472 -67 -265 c-36 -146 -78 -314
-93 -375 -14 -60 -30 -128 -35 -150 -129 -535 -169 -941 -120 -1198 20 -105
77 -245 137 -341 15 -22 30 -63 34 -89 9 -55 39 -120 88 -192 35 -51 48 -70
95 -140 44 -67 87 -109 166 -162 143 -96 170 -107 300 -111 63 -2 138 1 165 6
28 6 77 16 110 22 181 36 272 82 378 193 18 18 41 40 53 48 36 25 109 133 141
210 45 108 95 273 87 292 -3 9 0 33 7 54 7 21 15 88 19 148 l7 110 2 -90 c3
-119 16 -77 25 81 7 116 -17 382 -45 499 -5 22 -18 105 -29 185 -11 80 -29
206 -41 280 -13 81 -23 203 -26 305 -7 226 15 342 105 575 35 91 75 194 88
230 14 36 49 115 79 175 30 61 77 166 106 235 71 174 147 328 179 370 29 38
65 105 84 155 6 18 28 59 49 91 67 103 173 287 191 334 47 118 63 456 31 635
-8 44 -15 98 -15 120 0 129 -255 636 -402 802 -173 194 -310 343 -316 343 -4
0 -23 14 -42 32 -19 17 -60 47 -90 66 -30 20 -80 55 -110 79 -187 146 -188
146 -373 197 -67 19 -156 44 -197 56 -164 49 -238 60 -389 60 -124 -1 -157 -4
-216 -24z m185 -55 c0 -4 -28 -14 -62 -20 -123 -24 -191 -42 -229 -62 -50 -25
-51 -8 -1 22 69 42 292 88 292 60z m314 -76 c63 -16 163 -53 234 -86 52 -24
218 -147 322 -239 91 -81 119 -105 145 -124 19 -14 19 -16 -21 -50 -22 -19
-56 -57 -75 -85 -40 -59 -34 -60 -156 22 -90 60 -93 63 -98 107 -12 91 -23
111 -24 43 -1 -39 -5 -63 -12 -63 -8 0 -8 -4 0 -14 11 -13 9 -222 -5 -453 -6
-92 -6 -93 -51 -148 -54 -66 -52 -76 5 -34 l42 31 0 -44 c-1 -70 -19 -237 -36
-328 -26 -141 -64 -322 -78 -375 -8 -27 -17 -63 -20 -80 l-6 -30 14 25 c8 14
30 68 50 120 20 52 40 104 45 115 13 33 39 118 46 153 8 41 11 40 64 -9 l44
-41 -44 -44 c-51 -51 -42 -56 25 -14 l48 31 41 -35 c111 -91 112 -93 91 -118
-21 -26 -40 -45 -71 -71 -21 -19 -23 -18 -110 36 -84 52 -160 86 -122 55 9 -7
44 -38 79 -68 34 -30 69 -59 76 -63 19 -11 18 -26 -3 -49 -9 -10 -11 -18 -6
-18 6 0 16 7 23 15 18 22 25 20 95 -37 64 -51 65 -52 46 -72 -10 -12 -41 -56
-70 -98 l-51 -77 -63 34 c-87 48 -92 44 -23 -19 l59 -54 -23 -33 c-13 -19 -35
-46 -48 -61 -48 -52 -11 -42 43 12 l55 54 42 -40 c24 -22 62 -58 86 -80 l42
-39 -22 -25 c-13 -14 -47 -53 -76 -87 l-54 -61 -35 38 c-19 22 -74 72 -121
112 -112 94 -100 83 -173 153 -124 119 -22 -39 123 -190 58 -61 117 -124 131
-141 l26 -30 -22 -27 -22 -27 -65 42 c-36 23 -91 59 -122 79 -32 21 -58 33
-58 27 0 -16 163 -171 279 -265 58 -46 107 -88 108 -91 2 -4 -14 -27 -35 -51
l-38 -45 -67 57 c-37 31 -86 69 -109 84 -24 15 -45 30 -48 33 -3 3 -32 22 -65
44 -33 21 -70 48 -82 59 -17 15 -23 17 -23 6 0 -8 77 -89 171 -180 l171 -166
-17 -34 -18 -34 26 24 c29 26 30 26 97 -28 l25 -20 -29 -30 c-37 -38 -39 -38
-88 1 -83 65 -322 198 -358 198 -11 0 56 -60 142 -126 166 -127 207 -160 207
-167 2 -18 -92 -126 -103 -120 -6 4 -43 31 -83 60 -40 29 -77 53 -82 53 -12 0
35 -71 76 -116 58 -63 57 -61 34 -92 -11 -16 -37 -41 -56 -57 l-37 -27 -26 24
c-71 65 -134 89 -80 30 13 -15 35 -42 47 -60 28 -40 30 -37 -127 -188 -61 -58
-113 -113 -116 -121 -8 -20 10 -8 64 43 25 23 77 66 115 95 39 29 81 63 95 76
l25 23 48 -51 48 -51 -60 -61 c-48 -48 -63 -59 -73 -49 -20 20 -28 14 -16 -13
9 -20 8 -28 -5 -43 -24 -26 -21 -39 3 -17 25 23 39 16 85 -40 l38 -46 -43 -44
c-34 -35 -47 -42 -57 -33 -17 14 -31 2 -15 -14 9 -9 7 -18 -11 -36 l-22 -25
33 17 c17 9 32 13 32 9 0 -5 22 -31 50 -58 27 -28 50 -55 50 -61 0 -7 -21 -35
-46 -63 l-46 -51 -30 16 c-39 20 -44 14 -14 -16 23 -21 24 -24 9 -46 -9 -14
-11 -24 -5 -24 6 0 14 4 17 10 11 18 35 10 73 -24 20 -18 53 -47 72 -65 l35
-31 -24 -20 c-19 -17 -26 -18 -34 -8 -6 9 -7 6 -4 -9 4 -17 -7 -32 -49 -68
l-54 -47 -91 79 c-87 76 -127 103 -103 72 6 -8 40 -53 77 -101 37 -48 67 -90
67 -94 0 -5 -19 -28 -42 -51 -47 -48 -35 -56 27 -18 52 32 54 32 92 -18 18
-23 42 -53 55 -67 39 -42 88 -107 88 -117 0 -5 -22 -34 -49 -63 -38 -43 -51
-52 -62 -44 -8 6 -77 61 -153 123 -76 61 -143 111 -148 111 -11 0 95 -123 196
-227 l70 -73 -35 -37 c-19 -21 -58 -62 -86 -92 l-51 -54 -38 31 c-47 39 -55
34 -20 -12 31 -41 33 -62 6 -76 -18 -9 -20 -6 -26 40 -12 92 -22 46 -30 -145
-4 -77 -11 -145 -16 -152 -5 -6 -5 -13 0 -15 13 -5 23 -158 10 -158 -7 0 -7
-4 0 -12 12 -16 27 -148 17 -148 -4 0 -32 21 -62 46 -30 26 -57 44 -60 40 -3
-3 21 -40 53 -82 32 -42 65 -85 72 -95 25 -34 32 -89 14 -110 -20 -24 -24 -24
-52 1 -13 11 -27 20 -31 20 -19 0 87 -160 162 -245 114 -129 139 -165 110
-165 -4 0 -24 24 -46 53 -98 130 -276 319 -282 299 -12 -33 91 -194 188 -293
26 -27 45 -49 41 -49 -84 0 -260 57 -334 108 -24 16 -58 37 -76 46 -20 10 -61
56 -104 114 -39 53 -91 124 -116 157 -63 85 -77 118 -112 254 -36 144 -48 273
-38 408 4 54 5 99 3 101 -6 6 -25 -100 -32 -177 -6 -62 -8 -70 -15 -46 -15 63
2 -134 20 -222 10 -51 16 -93 13 -93 -12 0 -80 206 -91 270 -11 74 -12 360 0
405 4 17 8 -45 9 -150 1 -180 13 -333 28 -359 4 -8 7 36 5 97 -5 187 24 628
53 802 6 36 36 172 109 490 30 127 38 168 72 365 14 80 31 177 39 217 8 40 15
91 15 115 0 24 9 85 20 137 35 167 23 635 -20 774 -26 83 -35 84 -15 2 13 -54
23 -396 11 -384 -2 2 -9 83 -15 179 -10 176 -38 383 -65 495 -18 73 -21 33 -6
-64 16 -98 5 -84 -34 40 -77 247 -107 527 -34 312 15 -43 36 -103 47 -133 11
-30 34 -101 52 -158 17 -57 32 -102 34 -100 6 6 -50 256 -78 353 -89 302 -119
435 -100 435 5 0 22 -28 38 -62 26 -57 75 -140 75 -128 0 12 -82 236 -96 264
-49 95 -59 277 -46 891 l8 410 57 125 c83 181 123 229 245 286 191 90 322 109
476 69z m-499 6 c-13 -13 -85 -43 -85 -36 0 5 78 44 90 45 2 0 0 -4 -5 -9z
m889 -58 c16 -9 50 -30 75 -47 25 -17 91 -58 146 -90 55 -33 123 -74 150 -93
55 -36 202 -173 186 -173 -5 0 -71 48 -148 108 -158 123 -202 151 -368 239
-66 35 -124 69 -130 75 -14 14 51 0 89 -19z m-1034 -30 c-11 -16 -35 -46 -52
-68 -58 -75 -195 -391 -229 -527 -13 -53 -23 -134 -26 -223 -5 -105 -8 -132
-15 -110 -18 61 1 289 34 398 63 212 187 459 263 526 44 38 53 40 25 4z m-146
-80 c-10 -16 -35 -57 -56 -93 -28 -46 -37 -56 -32 -35 13 56 34 97 65 126 39
36 47 37 23 2z m1399 -110 c23 -14 74 -50 112 -78 39 -28 118 -86 177 -127
200 -141 308 -253 401 -418 62 -109 78 -140 74 -140 -7 0 -161 183 -207 245
-24 33 -62 76 -84 95 -23 19 -75 68 -116 109 -41 40 -109 98 -150 129 -167
124 -273 211 -257 212 4 0 26 -12 50 -27z m164 -239 c4 -11 -74 -113 -118
-156 -33 -33 -28 -3 7 37 19 22 45 61 57 87 21 45 45 59 54 32z m180 -159
l112 -111 -66 -52 c-62 -49 -66 -51 -92 -37 -45 24 -87 64 -75 72 23 18 96
103 87 103 -6 0 -38 -18 -72 -40 -67 -43 -79 -44 -124 -7 l-28 22 33 55 c18
31 42 75 52 98 23 51 9 59 173 -103z m-551 104 c16 -17 53 -49 82 -72 50 -38
54 -44 49 -74 -6 -36 3 -42 27 -18 32 33 37 3 5 -31 l-22 -23 -64 35 c-82 46
-89 39 -18 -15 l56 -43 -58 -61 c-32 -34 -63 -63 -69 -65 -9 -2 -12 31 -14
110 -1 62 -4 152 -8 201 -4 48 -5 87 -2 87 4 0 19 -14 36 -31z m-1257 -404 c1
-278 -10 -372 -25 -209 -11 125 -11 404 0 499 l10 80 7 -50 c4 -27 8 -171 8
-320z m1546 170 c28 -24 29 -24 10 -44 -23 -26 -24 -26 -60 3 -30 24 -30 24
-11 45 24 26 24 26 61 -4z m416 -27 c26 -33 24 -39 -32 -81 -46 -36 -79 -43
-79 -18 0 11 80 121 87 121 3 0 13 -10 24 -22z m-471 -77 c0 -4 -22 -28 -49
-55 l-49 -48 -26 28 -26 29 47 47 46 47 29 -20 c15 -11 28 -24 28 -28z m178
12 c57 -42 57 -41 38 -62 -19 -21 -33 -15 -99 40 -7 6 11 49 21 49 2 0 20 -12
40 -27z m354 -20 c9 -16 47 -62 84 -103 156 -176 268 -396 144 -284 -31 29
-41 43 -37 61 4 24 -7 31 -18 12 -7 -10 -142 119 -138 131 1 3 5 13 9 23 6 17
5 18 -13 6 -19 -11 -27 -7 -82 41 -60 52 -61 54 -44 74 64 78 70 80 95 39z
m-422 -74 l39 -31 -42 -57 c-23 -31 -42 -58 -44 -60 -5 -7 -94 71 -91 79 5 15
83 99 91 100 5 0 26 -14 47 -31z m-230 -42 c0 -5 -26 -43 -58 -85 -32 -42 -62
-86 -65 -96 -15 -38 -19 -5 -12 86 l7 93 41 33 40 33 23 -28 c13 -15 23 -32
24 -36z m437 27 c4 -13 -35 -36 -48 -28 -6 4 -4 13 7 25 18 20 35 21 41 3z
m103 -69 c71 -52 76 -60 51 -86 -22 -24 -20 -25 -82 29 -14 12 -33 28 -43 35
-15 11 -15 14 -1 35 20 28 19 28 75 -13z m-200 -18 c0 -19 -86 -100 -101 -95
-9 3 4 23 35 56 49 53 66 63 66 39z m-218 -151 c-35 -66 -30 -70 26 -18 27 25
45 35 51 29 7 -7 -16 -39 -66 -93 l-75 -84 -46 45 c-26 24 -48 42 -50 40 -2
-2 13 -28 33 -58 l37 -56 -47 -60 c-52 -69 -50 -68 -90 -40 -16 11 -40 24 -52
29 -27 11 -27 22 -8 110 8 36 14 79 15 95 0 26 16 45 102 123 l102 92 49 -49
50 -49 -31 -56z m338 55 l54 -48 -43 -52 c-24 -28 -46 -51 -49 -51 -4 0 -32
22 -61 48 l-55 49 45 51 c24 29 46 52 49 52 3 0 30 -22 60 -49z m259 -40 l63
-58 -26 -26 c-15 -15 -30 -27 -35 -27 -13 0 -116 122 -113 134 15 50 36 45
111 -23z m-100 -115 c29 -30 52 -58 50 -64 -2 -5 -21 -29 -43 -52 l-38 -43
-56 56 -55 56 34 50 c19 28 39 51 44 51 6 0 35 -24 64 -54z m-297 -3 c26 -26
48 -51 48 -55 0 -10 -129 -168 -137 -168 -3 0 -31 26 -64 57 l-59 57 72 77
c40 42 77 77 83 78 5 0 31 -20 57 -46z m537 -2 l44 -39 -27 -28 c-14 -16 -26
-32 -26 -36 0 -19 -29 -5 -64 31 l-38 39 24 36 c29 44 33 44 87 -3z m105 -17
c9 -24 7 -28 -9 -14 -17 14 -20 30 -6 30 5 0 12 -7 15 -16z m60 -126 c20 -30
51 -268 35 -268 -4 0 -25 30 -48 68 -22 37 -65 94 -96 127 -59 65 -59 64 -20
124 l25 41 43 -31 c23 -17 50 -44 61 -61z m-234 -31 c0 -10 -63 -106 -70 -106
-3 -1 -23 19 -44 44 l-37 45 36 50 37 51 39 -38 c21 -21 39 -41 39 -46z m-306
15 c47 -43 56 -65 33 -79 -7 -4 -34 -34 -61 -65 -27 -32 -53 -58 -58 -58 -12
0 -98 72 -98 83 0 13 123 168 131 165 4 -2 28 -22 53 -46z m-336 -71 c44 -53
43 -48 12 -89 l-25 -32 -84 57 -83 56 53 48 54 48 18 -22 c10 -12 35 -42 55
-66z m-1568 -76 c17 -60 47 -159 65 -220 39 -128 50 -173 39 -163 -17 17 -120
361 -138 463 -12 64 -1 38 34 -80z m2440 -91 c21 -28 39 -57 40 -65 6 -40 -1
-210 -9 -207 -4 2 -29 29 -55 61 -46 56 -46 58 -31 87 22 42 18 49 -9 17 l-22
-28 -50 58 c-27 31 -66 77 -86 101 l-38 43 26 52 c43 85 38 85 121 5 41 -40
92 -96 113 -124z m-380 91 l43 -44 -56 -86 c-32 -47 -60 -85 -65 -85 -4 1 -31
23 -61 50 -54 49 -54 50 -35 69 23 22 50 54 88 104 16 20 31 37 35 37 4 0 27
-20 51 -45z m-300 -115 c0 -3 -13 -19 -29 -34 l-28 -27 -49 45 -49 45 29 30
29 30 48 -41 c27 -23 49 -44 49 -48z m475 -64 c47 -47 85 -90 85 -96 0 -15
-101 -150 -113 -150 -13 0 -162 142 -162 155 0 9 96 174 102 175 2 0 41 -38
88 -84z m-627 -7 l42 -40 -37 -45 c-44 -52 -45 -52 -92 -15 -20 15 -46 33 -58
40 -25 13 -31 31 -10 31 6 0 30 16 52 35 51 43 53 43 103 -6z m277 -44 l60
-54 -27 -27 -27 -27 -46 39 c-26 21 -55 45 -66 53 -18 13 -18 14 4 42 30 38
33 37 102 -26z m-110 -107 c35 -29 64 -58 64 -64 1 -14 -60 -96 -69 -92 -16 7
-140 124 -140 133 0 8 68 73 78 75 2 0 32 -24 67 -52z m641 -20 c60 -57 59
-51 32 -158 -19 -78 -149 -362 -191 -419 -22 -30 -62 -97 -88 -148 -64 -124
-81 -147 -238 -310 l-133 -137 -25 29 c-14 17 -41 47 -60 68 l-34 37 32 40
c36 44 46 45 107 8 43 -26 41 -6 -3 28 -19 14 -35 31 -35 36 0 11 137 178 147
178 3 0 23 -14 44 -31 21 -17 39 -28 39 -24 0 10 -43 69 -52 73 -16 7 -6 23
68 112 l76 90 44 -31 c51 -35 56 -31 14 14 -16 18 -30 36 -30 40 0 5 21 34 48
65 75 90 68 86 104 68 17 -9 33 -14 35 -12 5 5 -23 33 -39 38 -7 3 20 48 70
116 45 61 82 113 82 116 0 12 -43 -32 -103 -102 -80 -96 -84 -98 -130 -56
l-38 35 21 33 c33 54 46 61 75 42 37 -24 42 -19 11 13 l-28 29 30 44 c16 23
39 62 51 86 12 23 26 42 32 42 6 0 35 -23 65 -52z m-321 -39 c47 -34 85 -63
85 -66 0 -9 -63 -78 -71 -78 -4 0 -41 33 -83 74 l-76 73 21 29 c11 16 24 29
29 29 5 0 48 -27 95 -61z m-445 -94 l74 -74 -34 -48 c-19 -26 -45 -59 -57 -73
-13 -14 -23 -28 -23 -32 0 -14 -26 -8 -46 10 -10 10 -47 39 -81 65 -35 27 -63
51 -63 54 0 9 141 173 149 173 3 0 40 -34 81 -75z m319 -12 c31 -27 67 -57 79
-69 l24 -21 -48 -62 -48 -62 -73 73 c-40 40 -73 77 -73 84 0 11 69 104 78 104
3 0 30 -21 61 -47z m-140 -166 c25 -23 58 -52 74 -64 15 -11 27 -25 27 -29 0
-5 -30 -37 -67 -71 l-68 -61 -25 19 c-14 10 -46 38 -72 61 l-48 43 61 73 c33
39 63 72 66 72 3 0 27 -19 52 -43z m344 8 c20 -14 37 -29 37 -33 -1 -4 -29
-35 -63 -70 l-62 -62 -27 24 c-16 13 -28 26 -28 30 0 9 93 136 99 136 4 0 23
-11 44 -25z m-144 -174 l24 -19 -73 -81 -74 -81 -28 27 c-36 35 -36 35 19 85
25 24 56 53 67 65 26 27 35 27 65 4z m-407 -13 c10 -10 98 -81 117 -94 3 -3
-62 -81 -136 -163 l-21 -24 -54 44 c-29 24 -64 54 -78 66 l-25 23 80 80 c82
82 94 89 117 68z m216 -179 l34 -30 -36 -42 c-19 -23 -55 -64 -79 -91 l-43
-49 -37 33 c-21 18 -36 36 -35 40 5 12 151 170 157 170 3 0 21 -14 39 -31z
m-360 -110 c53 -41 59 -54 31 -72 -12 -8 -33 3 -85 43 -105 81 -101 76 -79
100 l18 20 31 -25 c17 -14 55 -44 84 -66z m710 20 c-6 -19 -26 -56 -43 -84
-43 -67 -110 -198 -165 -320 -24 -55 -70 -152 -103 -215 -32 -63 -72 -149 -88
-190 -17 -41 -41 -97 -54 -125 -40 -86 -115 -282 -115 -302 0 -10 -5 -25 -10
-33 -7 -10 -8 1 -4 35 7 57 59 230 79 260 15 25 66 165 60 165 -3 0 -19 -28
-36 -62 -17 -35 -39 -74 -49 -88 -34 -49 -90 -191 -106 -272 -15 -69 -18 -144
-18 -435 -1 -194 -3 -353 -6 -353 -3 0 -38 34 -79 75 -41 41 -89 85 -108 97
-39 27 -39 32 -13 76 l21 33 28 -23 c56 -45 75 -58 83 -58 13 0 10 6 -38 76
l-47 68 23 43 c29 55 20 65 -18 21 -17 -18 -32 -31 -34 -28 -2 3 -23 27 -47
53 l-45 47 24 25 c29 30 34 31 72 4 26 -19 118 -35 118 -22 0 3 -14 18 -30 35
-17 16 -38 44 -46 60 -15 30 -15 32 20 82 66 93 64 92 86 78 26 -16 34 1 10
23 -13 11 -17 22 -11 29 5 6 12 27 15 46 l7 35 -24 -28 c-27 -32 -41 -29 -76
15 l-25 31 30 25 c16 14 54 47 84 73 30 27 58 49 63 49 4 0 7 5 7 10 0 6 17
29 38 51 80 87 225 299 288 422 35 70 61 127 57 127 -4 0 -44 -50 -87 -111
-78 -110 -196 -257 -206 -258 -3 0 -16 8 -30 18 l-24 19 66 69 c37 37 90 95
119 128 28 33 64 74 78 90 77 89 281 376 300 423 18 42 25 36 9 -9z m-552
-126 c52 -33 52 -32 16 -66 l-29 -28 -36 34 c-42 38 -43 43 -20 69 20 23 18
23 69 -9z m-101 -106 l43 -34 -43 -46 c-24 -26 -47 -47 -52 -47 -4 0 -26 16
-47 36 l-39 35 43 44 c24 25 46 45 48 45 2 0 23 -15 47 -33z m183 -134 c37
-26 69 -48 72 -50 2 -2 -24 -32 -58 -66 l-62 -62 -65 65 -65 64 47 48 c26 26
51 48 56 48 5 0 38 -21 75 -47z m-146 -150 c37 -25 68 -50 68 -54 0 -3 -18
-23 -41 -44 -46 -41 -32 -45 -119 33 -19 18 -38 32 -42 32 -25 0 31 79 56 80
5 0 40 -21 78 -47z m-132 -119 c77 -52 80 -58 48 -86 -13 -11 -34 -29 -48 -42
-44 -39 -47 -39 -105 5 -30 23 -55 46 -55 51 0 9 79 118 86 118 2 0 36 -21 74
-46z m179 -105 c17 -6 31 -14 31 -18 0 -11 -120 -151 -129 -151 -4 0 -20 14
-36 30 l-29 30 64 60 c36 32 65 59 66 60 1 0 15 -5 33 -11z m-324 -83 l40 -35
-30 -26 c-17 -14 -46 -39 -65 -55 l-35 -28 -50 44 -50 44 60 54 c66 59 63 59
130 2z m129 -181 c-38 -35 -76 -64 -84 -64 -8 0 -31 13 -50 29 l-35 30 40 33
c22 17 53 44 70 59 l30 26 48 -25 49 -25 -68 -63z m-185 -91 l50 -35 -32 -28
-31 -28 -42 46 -43 46 22 17 c27 22 19 24 76 -18z m-95 -74 c14 -27 24 -50 21
-50 -4 0 -66 38 -94 57 -6 4 30 43 40 43 4 0 19 -22 33 -50z m273 -52 c15 -17
13 -22 -28 -67 -24 -27 -46 -49 -49 -50 -3 0 -21 22 -40 51 l-34 51 39 33 c39
32 40 32 68 16 16 -9 35 -25 44 -34z m-167 -206 c0 -4 -11 -19 -23 -34 l-24
-27 -64 45 c-35 24 -64 49 -64 54 0 5 18 23 40 39 l40 31 48 -51 c26 -28 47
-53 47 -57z m3 -216 l55 -49 -25 -38 c-14 -22 -29 -39 -34 -39 -10 0 -159 94
-158 100 0 8 93 79 100 77 3 -1 31 -24 62 -51z m96 -305 c77 -69 81 -79 51
-106 -23 -21 -12 -27 -112 69 -64 61 -65 62 -41 88 21 23 16 25 102 -51z m-72
-121 c61 -75 62 -78 26 -122 -15 -18 -29 -35 -31 -38 -2 -2 -20 14 -40 37 -20
22 -61 66 -89 97 -61 66 -62 68 -26 92 15 9 37 26 48 36 19 18 20 18 40 -9 11
-15 44 -57 72 -93z m258 -52 c42 -45 83 -91 90 -102 13 -19 40 -214 32 -223
-2 -2 -28 36 -57 84 -29 49 -84 125 -121 171 l-68 83 16 35 c9 19 20 34 24 34
4 0 42 -37 84 -82z m-23 -212 c32 -32 58 -62 58 -68 0 -19 -30 -65 -68 -100
l-39 -37 -48 87 c-26 48 -58 101 -71 119 -31 40 -30 45 6 98 l31 44 37 -42
c20 -23 63 -68 94 -101z m-209 -64 c15 -20 50 -68 78 -106 l50 -69 -32 -33
c-18 -19 -35 -34 -38 -34 -4 1 -48 40 -99 88 l-92 87 46 53 c26 28 49 52 53
52 3 -1 19 -18 34 -38z m334 -54 c21 -14 23 -24 28 -144 17 -413 17 -439 -16
-574 -47 -194 -95 -326 -146 -399 -75 -108 -142 -177 -194 -202 -48 -22 -49
-22 -64 -3 -21 28 -18 36 29 72 124 93 239 239 282 357 32 87 31 110 -1 62
-31 -45 -30 -45 -66 -4 -36 40 -36 44 -1 87 16 19 46 67 67 105 48 88 43 84
66 56 21 -26 25 -15 8 22 -9 19 -7 31 5 55 24 46 19 61 -7 28 l-24 -29 -31 46
c-37 53 -38 63 -12 97 11 14 20 28 20 33 0 4 11 26 25 48 50 78 50 99 0 44
-24 -27 -55 -65 -67 -82 -13 -18 -26 -33 -29 -33 -3 0 -28 27 -54 61 l-47 60
33 35 33 34 38 -37 c46 -44 48 -39 9 22 l-29 46 38 56 c22 30 44 71 51 90 9
28 13 32 22 20 7 -8 22 -21 34 -29z m-435 -147 c31 -29 66 -60 78 -68 31 -22
25 -34 -60 -117 l-79 -78 -73 64 c-40 34 -85 75 -101 89 l-29 26 48 44 c27 24
67 61 89 81 45 41 36 44 127 -41z m-170 -349 c-26 -24 -66 -56 -89 -73 -42
-29 -43 -30 -67 -12 -26 19 -29 33 -41 199 l-6 81 33 22 33 21 92 -98 92 -97
-47 -43z m382 148 c25 -28 46 -56 46 -61 0 -11 -75 -113 -120 -162 l-25 -28
-61 68 -61 68 81 82 c44 45 84 82 87 82 3 1 27 -22 53 -49z m126 -142 c28 -31
40 -68 22 -68 -4 0 -25 -24 -47 -52 -46 -62 -96 -118 -106 -118 -4 0 -17 15
-28 34 l-22 34 24 26 c13 14 45 59 72 101 27 41 50 75 52 75 2 0 17 -15 33
-32z m-341 -93 l62 -64 -36 -32 c-19 -17 -48 -41 -63 -53 -15 -11 -33 -26 -40
-33 -22 -21 -34 -15 -112 58 -69 65 -73 72 -56 82 11 7 51 33 90 59 39 26 76
47 82 48 6 0 39 -29 73 -65z m-223 -189 c30 -33 54 -62 53 -65 0 -3 -28 -29
-61 -58 -88 -74 -96 -67 -100 97 -2 69 -1 129 1 134 2 5 15 -4 29 -20 13 -16
49 -56 78 -88z m364 32 c16 -18 30 -36 30 -40 0 -14 -112 -148 -124 -148 -7 0
-32 21 -56 46 l-45 46 25 16 c13 10 49 38 80 64 30 26 56 47 58 48 1 0 16 -15
32 -32z m168 -159 c-7 -17 -134 -158 -143 -158 -5 0 -22 15 -37 33 l-28 33 26
29 c14 16 44 52 66 81 l40 52 39 -31 c22 -18 38 -35 37 -39z m-352 -51 l41
-35 -30 -34 c-16 -19 -42 -50 -58 -69 l-29 -35 -71 71 -70 70 63 44 c35 24 65
48 67 53 2 5 13 0 25 -10 11 -11 39 -35 62 -55z m-136 -231 c0 -7 -12 -25 -27
-41 -24 -28 -26 -29 -39 -11 -7 10 -26 32 -41 49 -26 29 -49 125 -36 149 6 10
143 -131 143 -146z m290 108 l25 -26 -74 -70 -74 -70 -33 32 c-19 18 -34 37
-34 43 0 5 30 38 68 72 72 66 77 67 122 19z m-460 -33 c0 -12 -4 -12 -19 2
-11 10 -17 25 -14 33 5 14 8 13 20 -3 7 -10 13 -24 13 -32z m253 -136 c20 -19
37 -37 37 -41 0 -13 -73 -95 -84 -94 -6 0 -24 27 -40 60 l-30 60 30 24 c38 31
42 31 87 -9z m110 -90 c33 -26 19 -36 -101 -72 -56 -17 -51 -5 18 45 63 46 59
45 83 27z"/>
<path d="M5837 6459 c-9 -6 -28 -32 -42 -59 -64 -127 2 -263 154 -321 56 -21
56 -21 91 -1 59 33 78 97 66 214 -8 70 -49 129 -113 162 -36 18 -128 21 -156
5z m137 -81 c44 -29 66 -67 65 -110 0 -30 -1 -31 -11 -11 -21 43 -68 32 -68
-16 0 -14 -1 -14 -10 -1 -7 11 -10 2 -10 -32 0 -55 -7 -58 -45 -20 -56 55 -67
110 -35 172 24 48 60 53 114 18z m9 -190 c5 -18 8 -19 22 -8 8 7 18 10 21 7 6
-6 -25 -57 -35 -57 -7 0 -31 58 -31 73 0 17 18 5 23 -15z"/>
<path d="M510 4794 c0 -6 7 -19 16 -30 14 -18 14 -18 3 6 -14 31 -19 36 -19
24z"/>
<path d="M2852 3995 c-12 -26 -36 -59 -198 -280 -89 -120 -164 -203 -254 -280
-241 -207 -304 -262 -354 -315 -85 -87 -162 -142 -298 -211 -103 -53 -121 -66
-138 -100 -11 -21 -20 -41 -20 -44 0 -12 40 -3 85 20 57 28 64 27 33 -6 -64
-68 -54 -65 27 8 50 44 105 88 124 98 125 63 343 210 454 306 99 85 674 649
662 649 -11 0 -185 -150 -250 -215 -121 -122 -155 -142 -64 -38 75 85 180 237
226 326 41 77 41 78 20 92 -30 21 -42 19 -55 -10z"/>
<path d="M176 2411 c-19 -36 -17 -37 84 -76 133 -51 120 -34 161 -217 20 -90
42 -183 48 -208 5 -25 18 -103 27 -175 21 -172 51 -307 124 -560 93 -324 76
-282 298 -718 131 -258 144 -275 304 -398 104 -79 138 -81 276 -9 54 27 111
62 128 77 222 200 258 241 389 442 139 214 193 335 245 551 18 74 40 140 48
147 10 9 12 16 5 25 -7 9 -6 33 4 75 13 57 16 62 34 53 24 -13 27 11 3 31 -11
9 -14 22 -9 43 3 17 5 55 5 84 -1 36 5 61 18 80 34 50 37 56 19 49 -21 -8 -21
-4 -1 73 8 34 13 64 10 67 -3 3 -8 -6 -12 -21 -9 -37 -21 -32 -17 7 2 17 -9
-17 -23 -77 -26 -109 -39 -138 -79 -168 -20 -15 -26 -14 -96 21 l-76 38 26 36
c33 46 36 47 100 35 29 -5 62 -8 74 -6 12 2 -10 10 -50 17 -90 17 -89 37 2 43
78 5 86 11 54 44 -28 27 -333 107 -838 220 -342 76 -459 112 -753 227 -179 71
-252 97 -268 97 -8 -1 32 -20 90 -44 175 -72 280 -118 280 -123 0 -17 -183 54
-339 132 -38 19 -74 35 -80 35 -6 0 -11 5 -11 10 0 6 -6 10 -13 10 -7 0 -48
14 -90 30 -94 36 -83 36 -101 1z m269 -153 c24 -11 25 -14 25 -102 -1 -107
-10 -101 -46 31 -23 86 -22 91 21 71z m128 -66 c38 -17 107 -43 155 -58 48
-14 95 -30 104 -35 100 -53 632 -245 751 -270 40 -9 67 -29 38 -29 -5 0 -46
-21 -91 -46 -78 -44 -152 -107 -175 -149 -11 -17 -12 -17 -38 0 -23 15 -27 24
-27 66 0 27 -4 49 -10 49 -5 0 -10 -16 -10 -35 0 -19 -5 -35 -10 -35 -7 0 -7
-6 -1 -18 6 -11 6 -63 -1 -142 -6 -72 -7 -210 -3 -325 7 -203 10 -255 25 -450
18 -235 16 -306 -11 -352 -13 -24 -28 -42 -34 -40 -5 2 -28 37 -50 78 -22 41
-65 113 -96 159 -224 337 -364 662 -394 920 -21 171 -41 283 -76 423 -16 65
-29 132 -29 148 0 19 -5 29 -15 29 -8 0 -15 7 -15 15 0 8 -5 15 -10 15 -6 0
-10 -12 -9 -27 1 -16 -6 -41 -15 -58 -9 -16 -17 -39 -17 -50 -3 -27 -17 137
-18 203 -1 30 2 52 7 50 4 -2 38 -18 75 -36z m837 -242 c80 -23 172 -50 205
-60 106 -33 307 -78 428 -97 109 -16 136 -26 104 -38 -11 -5 -295 49 -472 90
-81 18 -339 104 -405 134 -56 26 -41 23 140 -29z m-847 -108 c9 -51 2 -51 -16
2 -12 35 -12 44 -2 40 7 -3 15 -22 18 -42z m1187 -49 c3 -3 -6 -13 -20 -22
-14 -9 -59 -44 -102 -78 -65 -53 -79 -60 -93 -49 -16 11 -12 16 31 48 49 36
94 88 94 108 0 10 78 4 90 -7z m215 -33 c72 -12 136 -23 144 -26 18 -6 -71
-74 -98 -74 -12 0 -18 -5 -16 -12 3 -7 -11 -24 -31 -37 -32 -22 -38 -23 -57
-11 -52 33 -130 71 -139 68 -5 -2 15 -28 46 -58 31 -30 56 -58 56 -61 0 -4
-17 -18 -38 -31 l-38 -26 -75 47 c-41 25 -76 51 -77 56 -1 6 18 32 41 59 23
27 55 69 70 93 24 39 31 44 55 39 15 -3 86 -15 157 -26z m-460 -146 c19 -14
19 -16 -20 -49 -48 -41 -47 -41 -91 -11 l-35 23 48 25 c58 30 72 32 98 12z
m615 -56 l61 -43 -31 -28 -32 -28 -31 23 c-18 13 -47 34 -64 47 l-33 22 28 24
c35 31 30 32 102 -17z m-730 -84 c0 -6 -7 -17 -15 -24 -31 -26 -17 -40 19 -19
l35 20 81 -54 81 -54 -47 -35 -47 -35 -76 53 c-42 29 -84 58 -94 66 -15 10
-20 31 -24 98 l-5 85 46 -45 c25 -24 46 -49 46 -56z m266 25 l75 -51 -33 -24
c-17 -13 -37 -24 -44 -24 -16 0 -154 83 -151 92 2 6 65 54 75 57 1 1 36 -22
78 -50z m349 -50 l54 -41 -28 -24 c-16 -13 -33 -24 -38 -24 -8 0 -103 67 -120
84 -9 8 51 56 65 51 6 -2 37 -23 67 -46z m235 25 c0 -16 -24 -84 -29 -84 -3 0
-14 7 -24 15 -18 13 -17 15 9 44 26 29 44 39 44 25z m-369 -116 c38 -24 69
-46 69 -50 0 -3 -17 -20 -38 -36 l-38 -30 -67 50 c-37 28 -67 53 -67 57 0 6
60 51 68 51 2 0 35 -19 73 -42z m-431 -134 c0 -7 -16 -26 -36 -44 -49 -42 -37
-48 22 -11 54 35 41 39 147 -53 l68 -60 -45 -45 -45 -44 -64 54 c-60 51 -121
100 -156 125 -12 9 -16 37 -19 120 l-4 109 66 -70 c36 -38 66 -75 66 -81z
m730 110 c0 -4 -14 -19 -32 -34 -30 -26 -33 -27 -55 -13 -29 19 -29 21 3 54
26 27 28 27 55 13 16 -8 29 -17 29 -20z m-436 -81 c42 -27 75 -50 75 -53 0 -3
-25 -25 -55 -48 l-55 -44 -71 59 c-40 33 -73 64 -75 69 -3 10 74 62 94 63 6 1
46 -20 87 -46z m328 3 c16 -12 13 -17 -39 -56 -71 -53 -77 -55 -94 -34 -12 15
-8 21 36 60 53 46 69 51 97 30z m44 -167 c-70 -194 -156 -380 -217 -470 l-16
-23 -26 29 c-35 40 -35 44 25 131 39 55 58 74 70 70 20 -5 23 5 8 20 -8 8 0
29 24 70 19 32 47 95 62 139 19 58 38 92 67 122 23 24 42 41 44 39 2 -2 -16
-59 -41 -127z m-192 42 c7 -10 -95 -121 -112 -121 -17 0 -47 49 -36 60 78 75
127 95 148 61z m-521 -96 c18 -22 49 -58 69 -81 l38 -41 -26 -24 c-41 -38 -93
-107 -68 -89 12 8 43 30 69 49 l47 33 22 -24 c64 -72 64 -60 0 -122 l-57 -56
-42 39 c-23 21 -54 46 -68 56 -23 15 -27 24 -27 69 0 28 -7 98 -15 156 -18
132 -18 130 6 100 11 -14 34 -43 52 -65z m588 -7 c-28 -40 -59 -83 -69 -96
l-18 -23 -18 20 c-18 20 -17 21 44 86 35 36 69 65 76 65 6 0 15 7 18 16 4 9 9
14 12 11 3 -3 -17 -38 -45 -79z m-1240 5 c12 -38 37 -104 56 -148 39 -93 43
-119 9 -55 -23 44 -77 188 -90 243 -12 51 2 27 25 -40z m991 -53 l33 -29 -53
-53 -53 -53 -34 37 c-19 21 -35 42 -35 47 0 11 88 81 101 81 5 0 23 -13 41
-30z m112 -86 c24 -9 20 -26 -25 -85 -22 -30 -44 -61 -49 -69 -7 -12 -15 -9
-41 20 l-32 34 59 53 c62 56 63 56 88 47z m-156 -184 c50 -45 54 -33 -52 -179
-38 -53 -70 -97 -71 -98 0 -1 -18 3 -38 9 -20 6 -40 9 -43 5 -17 -17 84 -143
128 -160 9 -4 0 -17 -28 -44 -61 -58 -156 -134 -163 -131 -4 2 -26 24 -50 50
l-43 47 7 72 c6 63 12 77 39 105 35 36 91 132 83 141 -9 9 -46 -7 -77 -34
l-30 -25 0 111 c0 61 4 111 8 111 4 0 23 -16 42 -35 28 -29 31 -37 20 -50 -19
-22 -4 -31 19 -11 18 16 21 15 77 -19 69 -41 78 -33 35 29 -17 25 -31 48 -30
53 0 8 109 92 119 92 3 0 24 -17 48 -39z m143 -107 c16 -10 29 -22 29 -28 -1
-23 -193 -265 -211 -265 -5 0 -9 5 -9 12 0 7 -12 29 -26 50 l-27 38 80 78 c44
42 88 89 98 105 20 32 27 33 66 10z m-672 -313 c30 -36 85 -99 124 -142 38
-42 69 -79 68 -82 -2 -13 -10 -10 -38 14 -15 14 -61 51 -100 83 -84 68 -120
116 -186 244 -64 124 -59 134 15 33 34 -47 87 -114 117 -150z m141 13 c0 -10
3 -29 7 -43 l6 -25 -32 29 c-36 34 -38 43 -13 49 30 8 32 7 32 -10z"/>
<path d="M1054 1563 l-51 -57 -33 37 c-44 51 -57 35 -29 -37 19 -52 19 -59 6
-74 -32 -36 -71 -152 -51 -152 3 0 25 21 48 46 l42 45 28 -43 c15 -24 37 -50
48 -57 20 -12 21 -11 14 21 -3 18 -13 56 -22 84 -16 51 -16 52 11 92 23 35 55
118 55 144 0 18 -17 5 -66 -49z"/>
</g></g>
</svg>